<svg width="73" height="72" viewBox="0 0 73 72" fill="none" xmlns="http://www.w3.org/2000/svg">
<g clip-path="url(#clip0)">
<path fill-rule="evenodd" clip-rule="evenodd" d="M14.7599 16.3472C18.891 10.7637 24.822 7.58068 31.5467 5.83189C39.786 3.68924 48.6047 1.15265 55.8263 5.66773C64.7922 11.2734 73.4231 20.6476 71.9871 31.116C70.5861 41.3291 57.948 44.0958 49.7056 50.287C40.3624 57.3051 33.215 71.8056 21.9394 68.7091C10.6222 65.6013 8.86945 50.2572 7.27593 38.6352C6.15556 30.4641 9.85585 22.9753 14.7599 16.3472Z" fill="#B3E3FF"/>
<g clip-path="url(#clip1)">
<g clip-path="url(#clip2)">
<g clip-path="url(#clip3)">
<g clip-path="url(#clip4)">
<path d="M62.6 30.6H47.3V27.9C47.3 27.612 47.1622 27.3413 46.9292 27.1719L37.4 20.2419V17.1H47.3C47.797 17.1 48.2 16.697 48.2 16.2V10.8C48.2 10.303 47.797 9.9 47.3 9.9H37.4C37.4 9.40297 36.997 9 36.5 9C36.003 9 35.6 9.40297 35.6 9.9V20.2419L26.0708 27.1719C25.8378 27.3413 25.7 27.612 25.7 27.9V30.6H10.4C9.90297 30.6 9.5 31.003 9.5 31.5V62.1C9.5 62.597 9.90297 63 10.4 63H62.6C63.097 63 63.5 62.597 63.5 62.1V31.5C63.5 31.003 63.097 30.6 62.6 30.6ZM37.4 11.7H46.4V15.3H37.4V11.7ZM25.7 61.2H11.3V32.4H25.7V61.2ZM40.1 61.2H32.9V52.2H40.1V61.2ZM45.5 61.2H41.9V51.3C41.9 50.803 41.497 50.4 41 50.4H32C31.503 50.4 31.1 50.803 31.1 51.3V61.2H27.5V28.3581L36.5 21.8124L45.5 28.3581V61.2ZM61.7 61.2H47.3V32.4H61.7V61.2Z" fill="black"/>
<path d="M17.6 35.1001H14V36.9001H17.6V35.1001Z" fill="black"/>
<path d="M23.0004 35.1001H19.4004V36.9001H23.0004V35.1001Z" fill="black"/>
<path d="M17.6 38.7002H14V40.5002H17.6V38.7002Z" fill="black"/>
<path d="M23.0004 38.7002H19.4004V40.5002H23.0004V38.7002Z" fill="black"/>
<path d="M17.6 42.2998H14V44.0998H17.6V42.2998Z" fill="black"/>
<path d="M23.0004 42.2998H19.4004V44.0998H23.0004V42.2998Z" fill="black"/>
<path d="M17.6 45.8999H14V47.6999H17.6V45.8999Z" fill="black"/>
<path d="M23.0004 45.8999H19.4004V47.6999H23.0004V45.8999Z" fill="black"/>
<path d="M17.6 49.5H14V51.3H17.6V49.5Z" fill="black"/>
<path d="M23.0004 49.5H19.4004V51.3H23.0004V49.5Z" fill="black"/>
<path d="M53.6 35.1001H50V36.9001H53.6V35.1001Z" fill="black"/>
<path d="M59.0004 35.1001H55.4004V36.9001H59.0004V35.1001Z" fill="black"/>
<path d="M53.6 38.7002H50V40.5002H53.6V38.7002Z" fill="black"/>
<path d="M59.0004 38.7002H55.4004V40.5002H59.0004V38.7002Z" fill="black"/>
<path d="M53.6 42.2998H50V44.0998H53.6V42.2998Z" fill="black"/>
<path d="M59.0004 42.2998H55.4004V44.0998H59.0004V42.2998Z" fill="black"/>
<path d="M53.6 45.8999H50V47.6999H53.6V45.8999Z" fill="black"/>
<path d="M59.0004 45.8999H55.4004V47.6999H59.0004V45.8999Z" fill="black"/>
<path d="M53.6 49.5H50V51.3H53.6V49.5Z" fill="black"/>
<path d="M59.0004 49.5H55.4004V51.3H59.0004V49.5Z" fill="black"/>
<path d="M30.2002 36.0002C30.2041 39.4779 33.0225 42.2963 36.5002 42.3002C39.9796 42.3002 42.8002 39.4796 42.8002 36.0002C42.8002 32.5208 39.9796 29.7002 36.5002 29.7002C33.0208 29.7002 30.2002 32.5208 30.2002 36.0002ZM41.0002 36.0002C41.0002 38.4854 38.9854 40.5002 36.5002 40.5002C34.015 40.5002 32.0002 38.4854 32.0002 36.0002C32.0031 33.5162 34.0162 31.5031 36.5002 31.5002C38.9854 31.5002 41.0002 33.515 41.0002 36.0002Z" fill="black"/>
<path d="M35.5998 35.0999H33.7998V36.8999H37.3998V32.3999H35.5998V35.0999Z" fill="black"/>
</g>
</g>
</g>
</g>
</g>
<defs>
<clipPath id="clip0">
<rect width="72" height="72" fill="white" transform="translate(0.5)"/>
</clipPath>
<clipPath id="clip1">
<rect width="54" height="54" fill="white" transform="translate(9.5 9)"/>
</clipPath>
<clipPath id="clip2">
<rect width="54" height="54" fill="white" transform="translate(9.5 9)"/>
</clipPath>
<clipPath id="clip3">
<rect width="54" height="54" fill="white" transform="translate(9.5 9)"/>
</clipPath>
<clipPath id="clip4">
<rect width="54" height="54" fill="white" transform="translate(9.5 9)"/>
</clipPath>
</defs>
</svg>
