<svg width="73" height="72" viewBox="0 0 73 72" fill="none" xmlns="http://www.w3.org/2000/svg">
<g clip-path="url(#clip0)">
<path fill-rule="evenodd" clip-rule="evenodd" d="M14.7599 16.3472C18.891 10.7637 24.822 7.58068 31.5467 5.83189C39.786 3.68924 48.6047 1.15265 55.8263 5.66773C64.7922 11.2734 73.4231 20.6476 71.9871 31.116C70.5861 41.3291 57.948 44.0958 49.7056 50.287C40.3624 57.3051 33.215 71.8056 21.9394 68.7091C10.6222 65.6013 8.86945 50.2572 7.27593 38.6352C6.15556 30.4641 9.85585 22.9753 14.7599 16.3472Z" fill="#E77C40"/>
<g clip-path="url(#clip1)">
<g clip-path="url(#clip2)">
<g clip-path="url(#clip3)">
<path d="M62.6004 9C62.6003 9 62.6001 9 62.6 9H10.4C9.90309 8.99989 9.50011 9.40264 9.5 9.89955C9.5 9.89966 9.5 9.89989 9.5 9.9V27.9H11.3V10.8H61.7V30.6H30.2V32.4H62.6C63.0969 32.4001 63.4999 31.9974 63.5 31.5004C63.5 31.5003 63.5 31.5001 63.5 31.5V9.9C63.5001 9.40309 63.0974 9.00011 62.6004 9Z" fill="white"/>
</g>
</g>
<g clip-path="url(#clip4)">
<g clip-path="url(#clip5)">
<path d="M57.1992 13.5H39.1992V15.3H57.1992V13.5Z" fill="white"/>
</g>
</g>
<g clip-path="url(#clip6)">
<g clip-path="url(#clip7)">
<path d="M59.9004 18.8999H41.9004V20.6999H59.9004V18.8999Z" fill="white"/>
</g>
</g>
<g clip-path="url(#clip8)">
<g clip-path="url(#clip9)">
<path d="M56.3008 24.2998H38.3008V26.0998H56.3008V24.2998Z" fill="white"/>
</g>
</g>
<g clip-path="url(#clip10)">
<g clip-path="url(#clip11)">
<path d="M38.2282 16.7597C37.6121 15.2786 35.912 14.5775 34.431 15.1937C34.4057 15.2042 34.3805 15.215 34.3555 15.2263L27.0579 19.0119C27.3457 18.4154 27.4967 17.7623 27.5 17.1001C27.5 14.6149 25.4852 12.6001 23 12.6001C20.5148 12.6001 18.5 14.6149 18.5 17.1001C18.5034 18.0769 18.8277 19.0256 19.4231 19.8001H19.3856C16.831 19.8172 14.5505 21.4054 13.6486 23.7956L11.246 32.0767C10.6741 33.5623 11.4147 35.2305 12.9005 35.8024C13.578 36.0632 14.3289 36.0588 15.0034 35.7901C15.7783 35.4779 16.3813 34.8474 16.6588 34.0595L17.6 31.0642V44.0897C16.8256 43.4945 15.8768 43.1702 14.9 43.1667C12.4185 43.163 10.4037 45.1717 10.4 47.6533C10.3982 48.8686 10.8887 50.0328 11.7598 50.8804C10.3774 51.5866 9.5054 53.0059 9.5 54.5582V62.1001C9.49989 62.597 9.90264 63 10.3996 63.0001C10.3997 63.0001 10.3999 63.0001 10.4 63.0001H19.4C19.8969 63.0002 20.2999 62.5975 20.3 62.1005C20.3 62.1004 20.3 62.1002 20.3 62.1001V54.5582C20.2956 53.2826 19.703 52.0804 18.694 51.3001H25.5062C24.497 52.0804 23.9044 53.2826 23.9001 54.5582V62.1001C23.9 62.597 24.3027 63 24.7997 63.0001C24.7998 63.0001 24.8 63.0001 24.8001 63.0001H33.8001C34.297 63.0002 34.7 62.5975 34.7001 62.1005C34.7001 62.1004 34.7001 62.1002 34.7001 62.1001V54.5582C34.6947 53.0059 33.8227 51.5866 32.4403 50.8804C34.2173 49.1459 34.2518 46.2994 32.5174 44.5224C31.4493 43.4281 29.8983 42.9517 28.4001 43.2577V24.8467L36.6622 20.5568C38.1432 19.9407 38.8443 18.2406 38.2282 16.7597ZM23 14.4001C24.4912 14.4001 25.7 15.6089 25.7 17.1001C25.7 18.5913 24.4912 19.8001 23 19.8001C21.5095 19.7985 20.3016 18.5906 20.3 17.1001C20.3 15.6089 21.5088 14.4001 23 14.4001ZM14.9 44.9667C16.3912 44.9667 17.6 46.1755 17.6 47.6667C17.6 49.1579 16.3912 50.3667 14.9 50.3667C13.4088 50.3667 12.2 49.1579 12.2 47.6667C12.2016 46.1762 13.4095 44.9684 14.9 44.9667ZM18.5 61.2001H11.3V54.5582C11.3018 53.2565 12.3567 52.2017 13.6586 52.2001H16.1414C17.4432 52.2017 18.4982 53.2565 18.5 54.5582V61.2001ZM32.9 54.5582V61.2001H25.7V54.5582C25.7018 53.2565 26.7567 52.2017 28.0586 52.2001H30.5414C31.8433 52.2017 32.8982 53.2565 32.9 54.5582ZM29.3 44.9667C30.7905 44.9683 31.9984 46.1762 32 47.6667C32 49.1579 30.7912 50.3667 29.3 50.3667C27.8088 50.3667 26.6 49.1579 26.6 47.6667C26.6 46.1755 27.8088 44.9667 29.3 44.9667ZM36.5813 18.2611C36.4609 18.5702 36.2135 18.8129 35.902 18.9273L27.0857 23.5011C26.7873 23.6559 26.6 23.9641 26.6 24.3001V44.0897C24.9142 45.3362 24.3302 47.5922 25.1996 49.5001H23.9V34.2001H22.1V49.5001H19.0004C19.2564 48.9342 19.3913 48.3211 19.3966 47.7001H19.4V25.2001C19.3999 24.703 18.9968 24.3001 18.4998 24.3002C18.1068 24.3003 17.7593 24.5554 17.6414 24.9303L14.954 33.482C14.7504 34.0436 14.1299 34.3339 13.5683 34.1301C13.529 34.1158 13.4904 34.0993 13.4528 34.0805C12.9336 33.8122 12.7132 33.1858 12.9502 32.6514L15.3526 24.3704C16.0005 22.7065 17.5999 21.6079 19.3855 21.6001H25.7581C25.9023 21.6003 26.0445 21.5656 26.1725 21.4991L35.1176 16.8559C35.6542 16.632 36.2728 16.861 36.534 17.3806C36.6725 17.6544 36.6897 17.9739 36.5813 18.2611Z" fill="white"/>
</g>
</g>
<g clip-path="url(#clip12)">
<g clip-path="url(#clip13)">
<path d="M46.841 50.8804C48.6211 49.1461 48.6582 46.297 46.9239 44.517C45.1896 42.7369 42.3405 42.6998 40.5605 44.434C38.7804 46.1683 38.7432 49.0174 40.4775 50.7975C40.5049 50.8255 40.5326 50.8532 40.5606 50.8804C39.1783 51.5867 38.3062 53.006 38.3008 54.5583V62.1001C38.3007 62.5971 38.7034 63 39.2003 63.0001C39.2004 63.0001 39.2007 63.0001 39.2008 63.0001H48.2008C48.6977 63.0003 49.1007 62.5975 49.1008 62.1006C49.1008 62.1005 49.1008 62.1003 49.1008 62.1001V54.5583C49.0954 53.006 48.2234 51.5867 46.841 50.8804ZM43.7008 44.9667C45.192 44.9667 46.4008 46.1756 46.4008 47.6667C46.4008 49.1579 45.192 50.3667 43.7008 50.3667C42.2096 50.3667 41.0008 49.1579 41.0008 47.6667C41.0024 46.1762 42.2103 44.9684 43.7008 44.9667ZM47.3008 61.2001H40.1008V54.5583C40.1026 53.2565 41.1575 52.2017 42.4593 52.2001H44.9422C46.244 52.2017 47.299 53.2565 47.3008 54.5583V61.2001Z" fill="white"/>
</g>
</g>
<g clip-path="url(#clip14)">
<g clip-path="url(#clip15)">
<path d="M61.2394 50.8804C63.0195 49.1461 63.0566 46.297 61.3223 44.517C59.588 42.7369 56.739 42.6998 54.9589 44.434C53.1788 46.1683 53.1417 49.0174 54.876 50.7975C54.9033 50.8255 54.931 50.8532 54.959 50.8804C53.5767 51.5867 52.7046 53.006 52.6992 54.5583V62.1001C52.6991 62.5971 53.1019 63 53.5988 63.0001C53.5989 63.0001 53.5991 63.0001 53.5992 63.0001H62.5992C63.0961 63.0003 63.4991 62.5975 63.4992 62.1006C63.4992 62.1005 63.4992 62.1003 63.4992 62.1001V54.5583C63.4938 53.006 62.6218 51.5867 61.2394 50.8804ZM58.0992 44.9667C59.5904 44.9667 60.7992 46.1756 60.7992 47.6667C60.7992 49.1579 59.5904 50.3667 58.0992 50.3667C56.608 50.3667 55.3992 49.1579 55.3992 47.6667C55.4008 46.1762 56.6087 44.9684 58.0992 44.9667ZM61.6992 61.2001H54.4992V54.5583C54.501 53.2565 55.5559 52.2017 56.8578 52.2001H59.3407C60.6424 52.2017 61.6974 53.2565 61.6992 54.5583V61.2001Z" fill="white"/>
</g>
</g>
</g>
</g>
<defs>
<clipPath id="clip0">
<rect width="72" height="72" fill="white" transform="translate(0.5)"/>
</clipPath>
<clipPath id="clip1">
<rect width="54" height="54" fill="white" transform="translate(9.5 9)"/>
</clipPath>
<clipPath id="clip2">
<rect width="54" height="23.4" fill="white" transform="translate(9.5 9)"/>
</clipPath>
<clipPath id="clip3">
<rect width="54" height="23.4" fill="white" transform="translate(9.5 9)"/>
</clipPath>
<clipPath id="clip4">
<rect width="18" height="1.8" fill="white" transform="translate(39.1992 13.5)"/>
</clipPath>
<clipPath id="clip5">
<rect width="18" height="1.8" fill="white" transform="translate(39.1992 13.5)"/>
</clipPath>
<clipPath id="clip6">
<rect width="18" height="1.8" fill="white" transform="translate(41.9004 18.8999)"/>
</clipPath>
<clipPath id="clip7">
<rect width="18" height="1.8" fill="white" transform="translate(41.9004 18.8999)"/>
</clipPath>
<clipPath id="clip8">
<rect width="18" height="1.8" fill="white" transform="translate(38.3008 24.2998)"/>
</clipPath>
<clipPath id="clip9">
<rect width="18" height="1.8" fill="white" transform="translate(38.3008 24.2998)"/>
</clipPath>
<clipPath id="clip10">
<rect width="28.9517" height="50.4" fill="white" transform="translate(9.5 12.6001)"/>
</clipPath>
<clipPath id="clip11">
<rect width="28.9517" height="50.4" fill="white" transform="translate(9.5 12.6001)"/>
</clipPath>
<clipPath id="clip12">
<rect width="10.8" height="19.8429" fill="white" transform="translate(38.3008 43.1572)"/>
</clipPath>
<clipPath id="clip13">
<rect width="10.8" height="19.8429" fill="white" transform="translate(38.3008 43.1572)"/>
</clipPath>
<clipPath id="clip14">
<rect width="10.8" height="19.8429" fill="white" transform="translate(52.6992 43.1572)"/>
</clipPath>
<clipPath id="clip15">
<rect width="10.8" height="19.8429" fill="white" transform="translate(52.6992 43.1572)"/>
</clipPath>
</defs>
</svg>
