<svg width="73" height="72" viewBox="0 0 73 72" fill="none" xmlns="http://www.w3.org/2000/svg">
<g clip-path="url(#clip0)">
<path fill-rule="evenodd" clip-rule="evenodd" d="M14.7599 16.3472C18.891 10.7637 24.822 7.58068 31.5467 5.83189C39.786 3.68924 48.6047 1.15265 55.8263 5.66773C64.7922 11.2734 73.4231 20.6476 71.9871 31.116C70.5861 41.3291 57.948 44.0958 49.7056 50.287C40.3624 57.3051 33.215 71.8056 21.9394 68.7091C10.6222 65.6013 8.86945 50.2572 7.27593 38.6352C6.15556 30.4641 9.85585 22.9753 14.7599 16.3472Z" fill="#B3E3FF"/>
<g clip-path="url(#clip1)">
<g clip-path="url(#clip2)">
<path d="M63.4786 52.4406V47.689H58.4102V44.5213H56.7208V41.8815H58.4102V37.1299H45.777V38.7138H56.8264V40.2976H24.0553V41.8815H55.1368V44.5213H20.6613C19.9334 44.5213 19.3414 43.9292 19.3414 43.2014C19.3414 42.4735 19.9334 41.8815 20.6613 41.8815H22.4714V40.2976H20.6613C19.0602 40.2976 17.7575 41.6002 17.7575 43.2014C17.7575 44.8026 19.0602 46.1051 20.6613 46.1051H56.8263V47.689H29.5309V49.2729H61.8946V50.8568H17.1767C14.7022 50.8568 12.6891 52.8699 12.6891 55.3444C12.6891 57.8189 14.7022 59.832 17.1767 59.832H54.4805V58.2481H17.1768C15.5757 58.2481 14.2731 56.9456 14.2731 55.3444C14.2731 53.7432 15.5757 52.4406 17.1768 52.4406H60.2053V55.0804H25.0962V56.6643H60.2053V58.2481H56.0645V59.832H61.8947V61.4159H17.1768C13.829 61.4159 11.1054 58.6923 11.1054 55.3444C11.1054 51.9965 13.829 49.2729 17.1768 49.2729H27.9472V47.689H20.6614C18.1868 47.689 16.1737 45.6759 16.1737 43.2014C16.1737 40.7269 18.1868 38.7138 20.6614 38.7138H44.1931V37.1299H20.6614C17.3135 37.1299 14.5899 39.8535 14.5899 43.2014C14.5899 44.9903 15.368 46.6006 16.6031 47.7128C12.6491 48.0075 9.52148 51.3164 9.52148 55.3444C9.52148 59.5656 12.9556 62.9998 17.1768 62.9998H63.4786V58.2481H61.7891V52.4406H63.4786Z" fill="black"/>
<path d="M21.9277 55.0806H23.5116V56.6644H21.9277V55.0806Z" fill="black"/>
<path d="M24.094 32.5383L24.4467 32.7734C24.5842 32.8651 27.9126 35.0183 36.501 35.0183C45.0893 35.0183 48.4178 32.8651 48.5553 32.7734L48.9079 32.5383V19.2049L53.6595 17.621V25.0978C52.4423 25.4435 51.5477 26.5644 51.5477 27.8909V31.8506H57.3552V27.8909C57.3552 26.5644 56.4607 25.4435 55.2434 25.0978V17.093L58.0117 16.1703L49.6947 13.3979L49.1938 14.9004L53.0031 16.1702L36.501 21.6709L19.9988 16.1703L36.501 10.6696L47.6912 14.3997L48.1921 12.8972L36.501 9L14.9902 16.1703L24.094 19.2049V32.5383ZM55.7714 27.8909V30.2667H53.1316V27.8909C53.1316 27.1631 53.7236 26.571 54.4515 26.571C55.1793 26.571 55.7714 27.1631 55.7714 27.8909ZM25.6779 19.7328L36.501 23.3406L47.3241 19.7328V25.9375H45.3706V27.5213H47.3241V29.1052H43.8924V30.6891H47.3241V31.6438C46.3034 32.1408 43.0196 33.4344 36.501 33.4344C29.9773 33.4344 26.6934 32.1388 25.6779 31.6443V19.7328Z" fill="black"/>
<path d="M18.7598 55.0806H20.3436V56.6644H18.7598V55.0806Z" fill="black"/>
<path d="M40.7246 29.105H42.3085V30.6888H40.7246V29.105Z" fill="black"/>
</g>
</g>
</g>
<defs>
<clipPath id="clip0">
<rect width="72" height="72" fill="white" transform="translate(0.5)"/>
</clipPath>
<clipPath id="clip1">
<rect width="54" height="54" fill="white" transform="translate(9.5 9)"/>
</clipPath>
<clipPath id="clip2">
<rect width="53.9571" height="54" fill="white" transform="translate(9.52148 9)"/>
</clipPath>
</defs>
</svg>
