<svg width="73" height="72" viewBox="0 0 73 72" fill="none" xmlns="http://www.w3.org/2000/svg">
<g clip-path="url(#clip0)">
<path fill-rule="evenodd" clip-rule="evenodd" d="M14.7599 16.3472C18.891 10.7637 24.822 7.58068 31.5467 5.83189C39.786 3.68924 48.6047 1.15265 55.8263 5.66773C64.7922 11.2734 73.4231 20.6476 71.9871 31.116C70.5861 41.3291 57.948 44.0958 49.7056 50.287C40.3624 57.3051 33.215 71.8056 21.9394 68.7091C10.6222 65.6013 8.86945 50.2572 7.27593 38.6352C6.15556 30.4641 9.85585 22.9753 14.7599 16.3472Z" fill="#B3E3FF"/>
<g clip-path="url(#clip1)">
<g clip-path="url(#clip2)">
<g clip-path="url(#clip3)">
<path d="M59.128 37.3081C58.9654 36.4607 58.2242 35.8479 57.3613 35.8474H55.6234L55.4956 35.0815C55.3681 34.3123 54.762 33.7113 53.9917 33.5902C53.8207 33.5632 53.6479 33.5452 53.4778 33.5218C53.7725 32.1459 53.5277 30.7093 52.7938 29.5087C53.1816 28.503 53.1092 27.3778 52.5958 26.43C52.0824 25.4822 51.1796 24.8069 50.1253 24.5821C49.4513 20.9749 46.3132 18.3528 42.6436 18.3307C42.5536 18.3307 42.4735 18.3424 42.388 18.3451C41.8017 17.4243 40.835 16.8132 39.7516 16.6784C38.6683 16.5437 37.5814 16.8994 36.7873 17.6485C35.787 16.9983 34.6198 16.6516 33.4267 16.6504C31.5044 16.6583 29.6926 17.5506 28.5145 19.0696C27.2064 18.6882 25.7958 18.9224 24.6811 19.7061C23.5665 20.4898 22.8688 21.738 22.7851 23.098C21.4111 23.6756 20.5171 25.0204 20.5162 26.5108C20.519 26.7692 20.5492 27.0265 20.6062 27.2785C19.3911 29.1103 19.0736 31.3948 19.7431 33.4885C19.5019 33.5218 19.2553 33.5515 19.0231 33.5857C18.2488 33.7026 17.6373 34.3039 17.5075 35.0761L17.3797 35.8447H15.6373C14.7759 35.8453 14.0356 36.4562 13.8715 37.3018L9.93042 57.5356C9.7765 58.3281 9.98522 59.1478 10.4993 59.7701C11.0135 60.3924 11.7791 60.7521 12.5863 60.7504H31.3549C32.1001 61.9798 34.3645 62.5504 36.4993 62.5504C38.6116 62.5504 40.8544 61.9933 41.6212 60.7504H60.4123C61.2194 60.752 61.9848 60.3925 62.4989 59.7704C63.013 59.1483 63.2218 58.3288 63.0682 57.5365L59.128 37.3081ZM23.2378 28.1398C22.5071 27.7005 22.1583 26.8282 22.3847 26.0062C22.6111 25.1841 23.3572 24.6134 24.2098 24.61C24.8066 24.6083 25.3682 24.8919 25.7209 25.3732C25.9126 25.6314 26.2274 25.7678 26.5468 25.7309C26.8662 25.694 27.1417 25.4896 27.2695 25.1945C27.3973 24.8994 27.358 24.5586 27.1663 24.3004C26.5552 23.4836 25.6291 22.9611 24.6139 22.8604C24.8822 21.6 25.9937 20.6977 27.2824 20.6941C27.3922 20.6997 27.5016 20.7117 27.61 20.7301C27.5376 20.9146 27.4745 21.1027 27.421 21.2935C27.309 21.7699 27.5982 22.2485 28.0721 22.3709C28.5459 22.4933 29.0307 22.2146 29.1634 21.7435C29.2658 21.348 29.423 20.9687 29.6305 20.6167C30.4289 19.2793 31.8691 18.4574 33.4267 18.4504C34.2744 18.4542 35.1027 18.7043 35.8108 19.1704C35.6759 19.5494 35.6045 19.9481 35.5993 20.3503C35.5993 20.8474 36.0023 21.2503 36.4993 21.2503C36.9964 21.2503 37.3993 20.8474 37.3993 20.3503C37.3993 19.3048 38.2469 18.4572 39.2925 18.4572C40.338 18.4572 41.1856 19.3048 41.1856 20.3503C41.1856 20.8474 41.5886 21.2503 42.0856 21.2503C42.5827 21.2503 42.9856 20.8474 42.9856 20.3503C42.9856 20.281 42.9685 20.2153 42.9649 20.146C45.5419 20.305 47.7089 22.1369 48.2947 24.6514C47.8749 24.7737 47.4804 24.9703 47.1301 25.2319C46.8729 25.4249 46.7381 25.7404 46.7766 26.0596C46.815 26.3788 47.0209 26.6533 47.3166 26.7796C47.6123 26.9059 47.9529 26.8649 48.2101 26.6719C48.9293 26.1395 49.9228 26.1819 50.5939 26.7738C51.2651 27.3657 51.4314 28.3461 50.9929 29.1262C50.797 29.4707 50.4993 29.7461 50.1406 29.9146C49.7645 30.0967 49.5632 30.5138 49.6546 30.9216C49.7461 31.3293 50.1061 31.6205 50.524 31.6246C50.656 31.6248 50.7863 31.5956 50.9056 31.5391C51.1441 31.4235 51.3695 31.2826 51.5779 31.1188C52.0431 32.4414 51.7514 33.9124 50.8165 34.9573L50.7949 34.9798C49.6224 36.25 47.752 36.5933 46.2049 35.8222C46.0534 35.7422 45.9078 35.6514 45.7693 35.5504C46.4322 34.6211 46.5238 33.4003 46.0069 32.3824C45.8622 32.0951 45.5753 31.9069 45.2541 31.8885C44.9329 31.8702 44.6264 32.0246 44.45 32.2935C44.2735 32.5625 44.2539 32.9051 44.3986 33.1924C44.6946 33.7873 44.51 34.5092 43.9648 34.8889C43.6447 35.1021 43.2492 35.1695 42.8765 35.0744C42.5038 34.9794 42.189 34.7308 42.01 34.3903C41.8661 34.1027 41.5797 33.9137 41.2587 33.8945C40.9377 33.8753 40.6308 34.0288 40.4536 34.2973C40.2765 34.5657 40.256 34.9082 40.3999 35.1958C40.9277 36.2613 42.0153 36.9342 43.2043 36.931C43.5914 36.9284 43.9746 36.853 44.3338 36.7087C44.6553 36.9902 45.0094 37.2319 45.3886 37.4287C46.6713 38.0936 48.1629 38.2315 49.5457 37.813C48.6563 39.0274 47.3252 39.8436 45.8395 40.0855C45.3773 40.1608 45.05 40.5779 45.0869 41.0447C45.1238 41.5116 45.5125 41.8721 45.9808 41.8738C46.0287 41.8738 46.0766 41.8702 46.1239 41.863C46.672 41.7682 47.2075 41.6118 47.7205 41.3968C47.9978 41.887 48.2228 42.405 48.3919 42.9421C48.4229 43.0359 48.4387 43.1341 48.4387 43.2328C48.4385 43.6218 48.2062 43.9731 47.8483 44.1256C47.4343 44.2858 46.9643 44.1594 46.6864 43.8133C45.9894 42.9948 45.0767 42.3883 44.0521 42.0628C42.1072 41.4112 41.3566 40.8289 41.038 40.1953C41.505 40.1371 41.9664 40.0407 42.4177 39.9073C42.7251 39.8128 42.9587 39.5615 43.0305 39.248C43.1024 38.9345 43.0015 38.6065 42.7659 38.3876C42.5304 38.1686 42.1959 38.092 41.8885 38.1865C41.3835 38.3415 40.8622 38.4372 40.3351 38.4718C39.3196 38.5512 38.2994 38.3973 37.3525 38.0218C36.997 37.8832 36.5927 37.9838 36.3436 38.2729C35.0332 39.7781 32.7905 40.034 31.1748 38.8626C29.5591 37.6911 29.105 35.48 30.1282 33.7666C30.294 33.4899 30.2995 33.1459 30.1428 32.864C29.986 32.5821 29.6908 32.4052 29.3683 32.4C29.0458 32.3948 28.7451 32.562 28.5793 32.8387C28.3646 33.2042 28.1919 33.5928 28.0645 33.997C27.3558 33.9597 26.7969 33.3801 26.7856 32.6704V32.6479C26.7852 32.4105 26.6898 32.183 26.5208 32.0162C26.3518 31.8494 26.1231 31.757 25.8856 31.7596C25.3864 31.7646 24.9846 32.1712 24.9856 32.6704C24.9896 34.2666 26.1933 35.6043 27.7801 35.7763C27.7833 36.078 27.8107 36.379 27.862 36.6763C25.8525 37.1112 23.7683 36.3888 22.4588 34.8038C21.1493 33.2187 20.8332 31.0356 21.6394 29.1442C21.8408 29.3479 22.0655 29.5271 22.309 29.6779C22.7342 29.927 23.2806 29.7879 23.5348 29.3658C23.7891 28.9437 23.6567 28.3957 23.2378 28.1362V28.1398ZM19.2778 35.3695C19.6927 35.3083 20.1211 35.2543 20.5468 35.1985C22.2108 37.8577 25.3934 39.1489 28.4398 38.4007C29.2584 39.9543 30.7541 41.0377 32.4854 41.3311C34.2167 41.6246 35.9859 41.0945 37.2706 39.8974C37.8822 40.0799 38.5122 40.194 39.1489 40.2376C39.5836 41.8864 40.84 42.8854 43.4797 43.7701C44.1913 43.9932 44.8261 44.4113 45.3121 44.977C45.8524 45.6195 46.6471 45.9928 47.4865 45.9985C47.8536 45.9984 48.217 45.9243 48.5548 45.7807C49.575 45.3447 50.2368 44.3423 50.2369 43.2328C50.2377 42.9435 50.1915 42.6559 50.1001 42.3814C49.8977 41.7455 49.6311 41.1319 49.3045 40.5499C50.8349 39.4498 51.9011 37.8193 52.2952 35.9761C52.4869 35.7484 52.6602 35.5058 52.8136 35.2507C53.1151 35.2894 53.4166 35.3236 53.7199 35.374L56.9689 54.9166C50.6181 52.796 43.7502 52.796 37.3993 54.9166V43.6504C37.3993 43.1534 36.9964 42.7504 36.4993 42.7504C36.0023 42.7504 35.5993 43.1534 35.5993 43.6504V54.9202C29.2492 52.7976 22.3814 52.7951 16.0297 54.913L19.2778 35.3695ZM11.8852 58.6192C11.7152 58.4138 11.6458 58.1431 11.6962 57.8812L15.6373 37.6474H17.0773L14.2531 54.6205C14.1538 55.2383 14.3813 55.8635 14.8544 56.273C15.3275 56.6825 15.9788 56.818 16.576 56.6311C21.3739 55.0767 26.4854 54.7524 31.4413 55.6879L31.1731 58.9504H12.5863C12.3148 58.9506 12.0575 58.8291 11.8852 58.6192ZM36.4993 60.7504C34.3312 60.7504 33.0874 60.1096 32.9047 59.8243L33.2143 56.0893C34.2039 56.3357 35.1724 56.6605 36.1105 57.0604C36.2318 57.1189 36.3646 57.1496 36.4993 57.1504C36.6343 57.1502 36.7676 57.1195 36.889 57.0604C37.8266 56.6581 38.7947 56.3313 39.7843 56.083L40.0939 59.8234C39.9112 60.1096 38.6674 60.7504 36.4993 60.7504ZM61.1134 58.6192C60.9411 58.8291 60.6838 58.9506 60.4123 58.9504H41.8282L41.5582 55.6816C46.5168 54.748 51.6306 55.0751 56.4298 56.6329C57.0268 56.8174 57.6768 56.68 58.1481 56.2697C58.6194 55.8594 58.845 55.2346 58.7446 54.6178L55.9231 37.6483H57.3631L61.3051 57.8803C61.355 58.1429 61.2847 58.414 61.1134 58.6192Z" fill="black"/>
<path d="M33.5169 29.8666C33.1485 30.1999 33.1199 30.7688 33.453 31.1374C34.2164 31.9803 35.2255 32.5621 36.3375 32.8006C35.8339 33.5103 35.0171 33.9314 34.1469 33.9301C33.6498 33.9301 33.2469 34.333 33.2469 34.8301C33.2469 35.3272 33.6498 35.7301 34.1469 35.7301C36.01 35.7375 37.6817 34.5868 38.34 32.8438C40.5779 32.4729 42.3496 30.7504 42.7833 28.5238C42.8503 28.2053 42.7401 27.8755 42.4952 27.6612C42.2503 27.4469 41.9087 27.3815 41.602 27.4902C41.2952 27.5989 41.071 27.8647 41.0157 28.1854C40.8392 29.1137 40.3036 29.9348 39.5253 30.4705C38.0279 31.479 36.0197 31.2501 34.7877 29.9305C34.4543 29.5621 33.8855 29.5335 33.5169 29.8666Z" fill="black"/>
<path d="M30.3785 28.8901C30.8756 28.8901 31.2785 28.4872 31.2785 27.9901C31.2785 27.3695 31.5251 26.7743 31.9639 26.3355C32.4027 25.8966 32.9979 25.6501 33.6185 25.6501C34.1156 25.6501 34.5185 25.2472 34.5185 24.7501C34.5185 24.253 34.1156 23.8501 33.6185 23.8501C31.3331 23.8526 29.481 25.7047 29.4785 27.9901C29.4785 28.2288 29.5733 28.4577 29.7421 28.6265C29.9109 28.7953 30.1398 28.8901 30.3785 28.8901Z" fill="black"/>
<path d="M37.3996 11.2502V10.3502C37.3996 9.85314 36.9967 9.4502 36.4996 9.4502C36.0026 9.4502 35.5996 9.85314 35.5996 10.3502V11.2502C35.5996 11.7473 36.0026 12.1502 36.4996 12.1502C36.9967 12.1502 37.3996 11.7473 37.3996 11.2502Z" fill="black"/>
<path d="M51.2685 15.9086L50.3685 16.8086C50.1346 17.0345 50.0407 17.3692 50.1231 17.6838C50.2055 17.9985 50.4512 18.2442 50.7659 18.3266C51.0805 18.409 51.4152 18.3151 51.6411 18.0812L52.5411 17.1812C52.7751 16.9552 52.8689 16.6206 52.7866 16.3059C52.7042 15.9912 52.4585 15.7455 52.1438 15.6631C51.8291 15.5808 51.4945 15.6746 51.2685 15.9086Z" fill="black"/>
<path d="M21.9947 18.3449C22.3586 18.3448 22.6867 18.1255 22.826 17.7893C22.9653 17.453 22.8883 17.066 22.631 16.8086L21.731 15.9086C21.505 15.6746 21.1704 15.5808 20.8557 15.6631C20.5411 15.7455 20.2953 15.9912 20.2129 16.3059C20.1306 16.6206 20.2244 16.9552 20.4584 17.1812L21.3584 18.0812C21.5271 18.25 21.756 18.3448 21.9947 18.3449Z" fill="black"/>
<path d="M28.9215 14.5577C29.0398 14.5575 29.1568 14.5343 29.2662 14.4893C29.4868 14.398 29.662 14.2227 29.7534 14.0021C29.8447 13.7814 29.8446 13.5336 29.7531 13.313L28.719 10.8182C28.6006 10.5144 28.327 10.2984 28.0039 10.2536C27.6809 10.2089 27.3589 10.3424 27.1623 10.6027C26.9658 10.8629 26.9253 11.2091 27.0567 11.5076L28.0899 14.0024C28.2293 14.3387 28.5575 14.5578 28.9215 14.5577Z" fill="black"/>
<path d="M45.4543 10.3313C44.9953 10.1414 44.4692 10.3593 44.2789 10.8182L43.2448 13.313C43.153 13.5336 43.1528 13.7817 43.2441 14.0026C43.3355 14.2234 43.5109 14.3988 43.7317 14.4902C43.8411 14.5351 43.9581 14.5583 44.0764 14.5586C44.4404 14.5587 44.7686 14.3395 44.908 14.0033L45.9412 11.5085C46.0329 11.2878 46.0332 11.0397 45.9418 10.8189C45.8505 10.5981 45.6751 10.4227 45.4543 10.3313Z" fill="black"/>
<path d="M54.7915 25.2741C54.9098 25.2739 55.027 25.2503 55.1362 25.2048L57.6301 24.1716C57.9272 24.0486 58.1361 23.7764 58.1782 23.4577C58.2202 23.1389 58.089 22.8219 57.8339 22.6261C57.5789 22.4303 57.2387 22.3854 56.9416 22.5084L54.4468 23.5416C54.0487 23.7051 53.8221 24.1276 53.9061 24.5497C53.99 24.9718 54.3611 25.2754 54.7915 25.2741Z" fill="black"/>
<path d="M17.8624 25.2045C18.3217 25.3949 18.8484 25.1769 19.0387 24.7176C19.2291 24.2583 19.0111 23.7317 18.5518 23.5413L16.057 22.5081C15.5977 22.318 15.0713 22.5362 14.8812 22.9955C14.691 23.4548 14.9092 23.9812 15.3685 24.1713L17.8624 25.2045Z" fill="black"/>
</g>
</g>
</g>
</g>
<defs>
<clipPath id="clip0">
<rect width="72" height="72" fill="white" transform="translate(0.5)"/>
</clipPath>
<clipPath id="clip1">
<rect width="54" height="54" fill="white" transform="translate(9.5 9)"/>
</clipPath>
<clipPath id="clip2">
<rect width="53.2367" height="53.1" fill="white" transform="translate(9.88086 9.4502)"/>
</clipPath>
<clipPath id="clip3">
<rect width="53.2367" height="53.1" fill="white" transform="translate(9.88086 9.4502)"/>
</clipPath>
</defs>
</svg>
